<?xml version="1.0" encoding="UTF-8"?>
<svg width="76px" height="84px" viewBox="0 0 76 84" version="1.1" xmlns="http://www.w3.org/2000/svg" xmlns:xlink="http://www.w3.org/1999/xlink">
    <!-- Generator: sketchtool 51.2 (57519) - http://www.bohemiancoding.com/sketch -->
    <title>CA8F4B99-9F33-4E96-8767-D7533182203A</title>
    <desc>Created with sketchtool.</desc>
    <defs></defs>
    <g id="Page-1" stroke="none" stroke-width="1" fill="none" fill-rule="evenodd">
        <g id="Homepage" transform="translate(-682.000000, -750.000000)">
            <g id="CTA-2" transform="translate(115.000000, 613.000000)">
                <g id="RedCube" transform="translate(569.000000, 139.000000)">
                    <path d="M70.5389822,22.1613584 C69.9944919,22.3440075 69.7695576,22.3838582 69.5836341,22.4876361 C59.2399785,28.2327805 48.9137532,34.0094734 38.538557,39.7014835 C37.2927035,40.383927 37.2702931,41.2623031 37.266143,42.3640093 C37.2279623,53.3395597 37.1673711,64.3159404 37.1134201,75.292321 C37.11093,75.9822365 37.1134201,76.6729822 37.1134201,77.6244179 C37.9077451,77.3105936 38.3924743,77.1785881 38.8141223,76.9428047 C48.955254,71.2881546 59.0756354,65.5961445 69.2458177,59.9888172 C70.530682,59.2806368 70.6751048,58.3823353 70.6717847,57.1693792 C70.6460542,46.1929986 70.6593345,35.2166179 70.6526943,24.2402373 C70.6526943,23.6184001 70.5871231,22.9965629 70.5389822,22.1613584 Z M69.6591656,20.4212106 C69.099735,20.0384777 68.8183597,19.812657 68.5062738,19.6383102 C58.1825385,13.8657684 47.8372229,8.12975645 37.5541584,2.29079683 C36.2975147,1.57763512 35.5164699,2.00353961 34.5461815,2.54650557 C24.735396,8.03428079 14.9204604,13.5129236 5.1113349,19.0006988 C4.49297321,19.3469018 3.91113221,19.752881 3.1284274,20.247694 C3.93769271,20.7458279 4.5294939,21.1393537 5.14868561,21.4855567 C13.8663405,26.3680993 22.7300781,31.0248211 31.2418891,36.221188 C35.0085003,38.5209062 37.7566823,38.4594697 41.5017131,36.213716 C50.6202655,30.7450359 60.0517339,25.7653572 69.6591656,20.4212106 Z M35.1570731,77.6343806 C35.2101941,76.6804542 35.2649751,76.1134118 35.2691252,75.5463693 C35.3438266,64.6496901 35.3778573,53.7521806 35.51979,42.8555014 C35.5413704,41.1518834 35.048341,40.168069 33.4572009,39.2946742 C23.6074047,33.8832795 13.8289898,28.349842 4.02152429,22.8662179 C3.42640304,22.5332984 2.78397089,22.2784199 1.99296593,21.9073101 C1.93154477,22.6179812 1.86348348,23.0355834 1.86348348,23.4540159 C1.85684336,34.781581 1.88091381,46.109146 1.82696279,57.4367111 C1.82032267,58.7841633 2.35236273,59.4815508 3.50691456,60.1216529 C13.3384505,65.5637658 23.1384458,71.0606735 32.9508914,76.5351651 C33.5709131,76.880538 34.2241355,77.1719463 35.1570731,77.6343806 Z M72.4546584,40.0252706 C72.4546584,46.1257505 72.4181377,52.2270607 72.484539,58.3267104 C72.4978192,59.6118958 72.167473,60.3923056 70.94984,61.0647864 C59.8790906,67.1802103 48.8357318,73.3421268 37.8230835,79.5546868 C36.6295209,80.2288281 35.787055,80.1773542 34.6291831,79.5247988 C23.679616,73.3512592 12.7068085,67.2134193 1.69997039,61.1336949 C0.428386344,60.4313261 -0.00322181805,59.6700115 0.00424832321,58.2669343 C0.0640094533,46.0659744 0.0681595318,33.8641844 9.82447306e-05,21.6632245 C-0.00820191223,20.2244477 0.508897867,19.5179278 1.75143136,18.8313332 C12.6902082,12.7823272 23.6024246,6.68848901 34.4806103,0.537365475 C35.8111255,-0.214816726 36.7739437,-0.155040657 38.0729182,0.577216187 C48.956084,6.71920727 59.8683004,12.8147059 70.8128874,18.8537493 C72.0894515,19.5586087 72.5086094,20.3290559 72.4903491,21.7238308 C72.4073475,27.8234805 72.4546584,33.9239604 72.4546584,40.0252706 Z" id="Stroke-461" stroke="#FFFFFF" stroke-width="3"></path>
                    <path d="M34.2968029,76.6212132 C33.7971334,76.3804485 33.3804656,76.1795345 32.977908,75.9553742 L24.307564,71.1126824 C17.3885531,67.2463331 10.4687123,63.3799837 3.53393114,59.5410317 C2.3951496,58.9108924 1.99425202,58.273281 2.00006213,57.1059872 C2.03907287,48.9656489 2.03741284,40.6899842 2.03575281,32.687463 L2.03658282,23.1216315 C2.03658282,22.8609414 2.06480336,22.5994211 2.09966401,22.2623505 C2.10879419,22.1793282 2.11709434,22.0921548 2.12705453,22 C2.25902703,22.0597761 2.38767946,22.1178917 2.51218182,22.1735166 C2.98114068,22.3843933 3.38701836,22.5662122 3.77297566,22.7820702 C6.5991791,24.3619849 9.42372252,25.946881 12.2482659,27.531777 C19.1058556,31.3798615 26.1983397,35.3591212 33.2103123,39.2105265 C34.6454095,39.9992385 35.1459089,40.8651613 35.1251586,42.5197961 C35.0222366,50.439295 34.9749257,58.4916296 34.9301049,66.2791231 C34.9126745,69.2571336 34.8952442,72.2343139 34.8744938,75.2123245 C34.8720038,75.5743018 34.8479333,75.9362791 34.8180527,76.4028645 C34.8080926,76.5440025 34.7981324,76.6959333 34.7890022,76.8594873 C34.6155289,76.7748045 34.4520158,76.6959333 34.2968029,76.6212132" id="Fill-463" fill="#FB4848"></path>
                    <path d="M2.16606451,22 C2.10381333,22.710671 2.03658206,23.1282733 2.03575204,23.5467058 C2.02994193,34.8742708 2.05318237,46.2018359 2.00006137,57.529401 C1.99342124,58.8768532 2.5254613,59.5750709 3.67918312,60.2143427 C13.5115491,65.6564557 23.3115444,71.1541936 33.12399,76.627855 C33.7448417,76.9732279 34.397234,77.263806 35.3301717,77.7270705 C35.3832927,76.7731441 35.4380737,76.2069319 35.4422238,75.6390592 C35.5169252,64.7415497 35.5509558,53.8440403 35.6928885,42.9481913 C35.7144689,41.2445733 35.2214396,40.2615891 33.6294695,39.3873641 C23.7796732,33.9759694 14.0020883,28.4425319 4.19462287,22.9589078 C3.59950162,22.6259883 2.95623945,22.3711098 2.16606451,22 M2.65162369,22.8451672 L2.67569415,22.8559601 C3.14133295,23.0643461 3.54140052,23.2445045 3.91739763,23.454551 C6.75522129,25.0411075 9.5897249,26.6318151 12.4250585,28.2225227 C19.273518,32.0647956 26.3552119,36.0382437 33.3572244,39.8846677 C34.7159601,40.6310384 35.1450782,41.3732579 35.1251578,42.9415495 C35.0222358,50.8344813 34.974925,58.8602487 34.9301041,66.6220052 C34.9126738,69.6265829 34.8952434,72.6303304 34.8744931,75.6357383 C34.872003,75.9877529 34.8487626,76.3522209 34.818052,76.813825 C34.818052,76.8237877 34.816392,76.8345806 34.816392,76.8445433 C34.7782112,76.8262784 34.7408605,76.8088437 34.7043398,76.7905788 C34.1955402,76.5448327 33.7929826,76.3505605 33.4012152,76.1322118 C30.4770699,74.5016534 27.5554146,72.8686045 24.6337594,71.2363857 C17.8608313,67.4522284 10.8588189,63.5393866 3.95474833,59.7178693 C2.91224862,59.1408642 2.56281201,58.589596 2.56696209,57.5318917 C2.60597283,49.3541933 2.6043128,41.0403384 2.60265276,33.0004571 C2.60182275,29.8489299 2.60099273,26.698233 2.60265276,23.547536 C2.60265276,23.3374895 2.62340316,23.123292 2.65162369,22.8451672" id="Fill-465" fill="#FFFFFF"></path>
                    <path d="M36.6835281,37.4397369 C35.1579592,37.4397369 33.5850795,36.9125452 31.7299944,35.780951 C25.7173607,32.1097041 19.4283318,28.6526547 13.3459767,25.309346 C10.768778,23.892155 8.19157927,22.4757943 5.62766078,21.0403384 C5.21846304,20.8103666 4.82088552,20.5612996 4.36437689,20.2732122 L4,20.0465613 C4.12035228,19.9693505 4.23489444,19.8946304 4.34694656,19.8215708 C4.79183497,19.5326531 5.18277237,19.2777746 5.59031007,19.0502934 C10.6168851,16.2383275 35.0251567,2.59610024 35.0251567,2.59610024 C35.5953775,2.2756341 36.0884068,2 36.6411973,2 C36.9889739,2 37.3533507,2.11124991 37.7542483,2.33873106 C45.3663223,6.66087293 53.1394193,10.9979588 60.6568714,15.1914161 C63.3403122,16.6891387 66.025413,18.1868613 68.7080237,19.6870746 C68.8997573,19.7950036 69.0790407,19.922858 69.3255554,20.0972049 C69.3695462,20.1279231 69.4160271,20.1611321 69.464168,20.1951712 C66.822228,21.663836 64.1935683,23.1051035 61.5806789,24.5372384 C54.6907186,28.3139237 48.1833955,31.8813927 41.6959929,35.7718185 C39.798577,36.9100545 38.2057769,37.4397369 36.6835281,37.4397369" id="Fill-467" fill="#FB4848"></path>
                    <path d="M37.0013721,74.7507204 L37.0412128,66.7398969 C37.0835436,58.4343442 37.1242144,50.1279613 37.154095,41.8215784 C37.157415,40.6708891 37.2121961,39.9917665 38.2787662,39.4064592 C45.8891801,35.232097 53.5991959,30.9415036 61.0552269,26.791218 L69.3246733,22.1926118 C69.414315,22.1427984 69.5321773,22.1062686 69.728891,22.0473227 C69.7753719,22.0323787 69.8268328,22.0174347 69.8824439,22 C69.8915741,22.1427984 69.9015342,22.2797852 69.9106644,22.4109605 C69.943035,22.8808668 69.9729156,23.2893366 69.9729156,23.6969762 L69.9754056,34.6758475 C69.9754056,41.9926044 69.9754056,49.3093613 69.9920059,56.6261182 C69.995326,57.8888876 69.8044224,58.5954075 68.7129518,59.1973193 C61.587267,63.1259354 54.3677905,67.1624805 47.3856984,71.0661899 C44.350331,72.7623359 41.3166237,74.4584818 38.2804263,76.1521371 C38.0272715,76.2924448 37.7475562,76.3945623 37.3615989,76.5365305 C37.2487167,76.5772114 37.1291945,76.620383 37.0005421,76.6685359 C37.0005421,76.6685359 36.998882,75.1940596 37.0013721,74.7507204" id="Fill-607" fill="#FB4848"></path>
                </g>
            </g>
        </g>
    </g>
</svg>