<?xml version="1.0" encoding="UTF-8"?>
<svg width="74px" height="27px" viewBox="0 0 74 27" version="1.1" xmlns="http://www.w3.org/2000/svg" xmlns:xlink="http://www.w3.org/1999/xlink">
    <!-- Generator: sketchtool 51.2 (57519) - http://www.bohemiancoding.com/sketch -->
    <title>5BA2CA71-85D4-4D03-AB5B-68B4BA219B13</title>
    <desc>Created with sketchtool.</desc>
    <defs></defs>
    <g id="Page-1" stroke="none" stroke-width="1" fill="none" fill-rule="evenodd">
        <g id="Homepage" transform="translate(-34.000000, -21.000000)" fill="#FFFFFF">
            <g id="Navigation">
                <g id="Logo" transform="translate(34.000000, 21.000000)">
                    <path d="M10.720186,6.05893388 C16.524561,6.05893388 21.229878,10.7127521 21.229878,16.4534876 C21.229878,22.1943347 16.524561,26.8481529 10.720186,26.8481529 C8.79787805,26.8481529 6.99638415,26.3372727 5.44610671,25.445938 L5.44610671,26.833314 L0,26.833314 L0,0 L5.44610671,0 L5.44610671,7.46114876 C6.99638415,6.56970248 8.79787805,6.05893388 10.720186,6.05893388 Z M10.6073811,21.8163347 C13.6082165,21.8163347 16.0408537,19.4103223 16.0408537,16.4423306 C16.0408537,13.4744504 13.6082165,11.068438 10.6073811,11.068438 C7.60654573,11.068438 5.17390854,13.4744504 5.17390854,16.4423306 C5.17390854,19.4103223 7.60654573,21.8163347 10.6073811,21.8163347 Z M45.5613375,16.4535211 C45.5613375,10.712674 50.2666546,6.05885579 56.0710296,6.05885579 C57.9933375,6.05885579 59.7948314,6.56973595 61.3451088,7.46107066 L61.3451088,3.34710744e-05 L66.7912155,3.34710744e-05 L66.7912155,26.833236 L61.3451088,26.833236 L61.3451088,25.4459715 C59.7948314,26.3373062 57.9933375,26.8481864 56.0710296,26.8481864 C50.2666546,26.8481864 45.5613375,22.1943682 45.5613375,16.4535211 Z M50.7503619,16.442364 C50.7503619,19.4103558 53.1829991,21.8163682 56.1838345,21.8163682 C59.184557,21.8163682 61.6171942,19.4103558 61.6171942,16.442364 C61.6171942,13.4743723 59.184557,11.0683599 56.1838345,11.0683599 C53.1829991,11.0683599 50.7503619,13.4743723 50.7503619,16.442364 Z M28.5209198,16.0704669 C28.5209198,16.0704669 28.3026424,21.828719 32.8263436,21.828719 C32.8263436,21.828719 38.2597034,22.4237231 38.2597034,16.0704669 L38.2597034,7.41116529 L43.7381851,7.41116529 L43.7381851,26.8481529 L38.2597034,26.8481529 L38.2597034,25.1851983 C38.2597034,25.1851983 36.7031088,26.8481529 33.9543924,26.8481529 C29.8443466,26.8481529 23.052929,25.8452479 23.052929,17.1296033 L23.052929,7.41116529 L28.5314107,7.41116529 L28.5209198,16.0704669 Z"></path>
                    <path d="M73.950332,24.3395293 C73.950332,25.7167525 72.8214936,26.833236 71.4290302,26.833236 C70.036454,26.833236 68.9076155,25.7167525 68.9076155,24.3395293 C68.9076155,22.9623062 70.036454,21.8458227 71.4290302,21.8458227 C72.8214936,21.8458227 73.950332,22.9623062 73.950332,24.3395293" id="Fill-1"></path>
                </g>
            </g>
        </g>
    </g>
</svg>